<?xml version="1.0" encoding="UTF-8"?>
<svg xmlns="http://www.w3.org/2000/svg" xmlns:xlink="http://www.w3.org/1999/xlink" width="208px" height="200px" viewBox="0 0 207 200" version="1.1">
<g id="surface1">
<path style=" stroke:none;fill-rule:nonzero;fill:rgb(4.705882%,57.254902%,81.960784%);fill-opacity:1;" d="M 136.429688 8.375 C 136.859375 8.445312 136.859375 8.445312 137.300781 8.519531 C 139.144531 8.835938 140.898438 9.289062 142.683594 9.828125 C 142.664062 10.664062 142.664062 10.664062 142.640625 11.519531 C 142.5 18.867188 143.382812 25.191406 148.410156 30.929688 C 149.046875 31.597656 149.695312 32.253906 150.351562 32.90625 C 150.582031 33.148438 150.8125 33.386719 151.050781 33.636719 C 155.492188 37.902344 161.65625 39.589844 167.644531 39.796875 C 174.566406 39.546875 180.976562 36.757812 185.761719 31.710938 C 187.152344 30.0625 188.359375 28.296875 189.535156 26.496094 C 194.421875 28.308594 199.308594 31.984375 202.742188 35.898438 C 207.414062 47.199219 206.730469 61.679688 206.707031 73.683594 C 206.707031 74.894531 206.710938 76.109375 206.71875 77.320312 C 206.914062 108.242188 198.339844 135.808594 176.96875 158.6875 C 176.078125 159.644531 175.214844 160.621094 174.363281 161.617188 C 165.351562 172.023438 153.660156 179.9375 141.832031 186.753906 C 141.535156 186.925781 141.234375 187.101562 140.925781 187.277344 C 126.375 195.652344 108.453125 201.800781 91.703125 197.519531 C 91.089844 197.351562 90.480469 197.179688 89.871094 197.007812 C 89.585938 196.929688 89.296875 196.851562 89.003906 196.773438 C 70.621094 191.699219 53.753906 181.234375 39.753906 168.425781 C 38.859375 167.609375 37.949219 166.816406 37.027344 166.027344 C 33.953125 163.332031 31.179688 160.378906 28.535156 157.265625 C 28.191406 156.871094 27.847656 156.476562 27.492188 156.070312 C 22.53125 150.375 18.316406 144.109375 14.480469 137.605469 C 14.292969 137.289062 14.105469 136.96875 13.910156 136.640625 C 9.242188 128.652344 5.441406 120.171875 3.40625 111.109375 C 3.332031 110.78125 3.257812 110.449219 3.179688 110.109375 C 0.78125 99.367188 0.207031 88.476562 0.257812 77.507812 C 0.265625 76.023438 0.261719 74.535156 0.253906 73.050781 C 0.117188 40.324219 0.117188 40.324219 5.613281 33.96875 C 36.640625 8.839844 87.417969 1.050781 136.429688 8.375 Z M 136.429688 8.375 "/>
<path style=" stroke:none;fill-rule:nonzero;fill:rgb(99.215686%,99.215686%,99.607843%);fill-opacity:1;" d="M 79.695312 56.859375 C 80.726562 57.664062 81.679688 58.503906 82.628906 59.402344 C 83.015625 59.734375 83.015625 59.734375 83.410156 60.070312 C 87.28125 63.578125 89.855469 68.640625 91.574219 73.503906 C 91.726562 73.917969 91.878906 74.332031 92.035156 74.757812 C 94.625 82.394531 94.980469 90.734375 94.980469 98.71875 C 75.585938 98.71875 56.1875 98.71875 36.203125 98.71875 C 36.828125 105 36.828125 105 38.757812 110.683594 C 38.929688 111.0625 39.097656 111.441406 39.273438 111.832031 C 42.589844 118.578125 48.140625 122.945312 55.183594 125.34375 C 66.214844 128.484375 77.230469 124.335938 86.890625 119.230469 C 87.449219 118.949219 88.011719 118.667969 88.59375 118.375 C 88.59375 123.3125 88.59375 128.246094 88.59375 133.332031 C 74.414062 139.261719 58.5 141.472656 43.683594 136.113281 C 34.035156 132.023438 27.265625 124.769531 23.21875 115.144531 C 20.511719 108.246094 19.863281 101.175781 19.832031 93.832031 C 19.828125 93.527344 19.828125 93.222656 19.824219 92.910156 C 19.792969 87.316406 20.515625 81.96875 22.441406 76.683594 C 22.550781 76.382812 22.65625 76.082031 22.769531 75.773438 C 26.636719 65.460938 33.976562 58.277344 43.851562 53.785156 C 55.078125 49.0625 69.503906 50.113281 79.695312 56.859375 Z M 79.695312 56.859375 "/>
<path style=" stroke:none;fill-rule:nonzero;fill:rgb(98.823529%,99.215686%,99.607843%);fill-opacity:1;" d="M 122.667969 25.214844 C 122.667969 33.816406 122.667969 42.417969 122.667969 51.28125 C 128.289062 51.28125 133.910156 51.28125 139.703125 51.28125 C 139.703125 55.511719 139.703125 59.742188 139.703125 64.101562 C 134.082031 64.101562 128.460938 64.101562 122.667969 64.101562 C 122.703125 70.609375 122.742188 77.121094 122.789062 83.628906 C 122.808594 86.648438 122.832031 89.671875 122.847656 92.695312 C 122.863281 95.613281 122.882812 98.53125 122.90625 101.449219 C 122.914062 102.558594 122.917969 103.671875 122.921875 104.785156 C 122.929688 106.34375 122.941406 107.902344 122.957031 109.464844 C 122.957031 109.921875 122.957031 110.378906 122.960938 110.851562 C 123.007812 115.339844 123.621094 119.582031 126.785156 122.988281 C 129.511719 125.4375 131.878906 126.28125 135.496094 126.203125 C 136.035156 126.195312 136.035156 126.195312 136.585938 126.1875 C 141.035156 126.09375 144.785156 125.222656 149.074219 123.929688 C 149.074219 128.164062 149.074219 132.394531 149.074219 136.753906 C 147.40625 137.308594 146 137.753906 144.308594 138.0625 C 143.953125 138.128906 143.59375 138.195312 143.226562 138.261719 C 133.480469 139.652344 123.097656 140.066406 114.863281 133.871094 C 110.25 130.0625 108.121094 124.875 107.421875 118.988281 C 107.242188 116.867188 107.277344 114.742188 107.285156 112.617188 C 107.285156 112.09375 107.285156 111.566406 107.285156 111.023438 C 107.285156 109.59375 107.289062 108.160156 107.289062 106.730469 C 107.292969 105.230469 107.292969 103.730469 107.292969 102.230469 C 107.292969 99.394531 107.296875 96.554688 107.300781 93.71875 C 107.308594 90.488281 107.308594 87.257812 107.3125 84.027344 C 107.316406 77.386719 107.324219 70.746094 107.332031 64.101562 C 102.835938 64.101562 98.335938 64.101562 93.703125 64.101562 C 93.703125 59.871094 93.703125 55.640625 93.703125 51.28125 C 98.203125 51.28125 102.699219 51.28125 107.332031 51.28125 C 107.332031 44.230469 107.332031 37.179688 107.332031 29.914062 C 109.300781 29.351562 111.269531 28.785156 113.296875 28.207031 C 114.828125 27.683594 116.355469 27.15625 117.875 26.601562 C 118.609375 26.335938 119.34375 26.070312 120.078125 25.808594 C 120.390625 25.695312 120.707031 25.578125 121.03125 25.460938 C 121.816406 25.214844 121.816406 25.214844 122.667969 25.214844 Z M 122.667969 25.214844 "/>
<path style=" stroke:none;fill-rule:nonzero;fill:rgb(99.607843%,99.607843%,99.607843%);fill-opacity:1;" d="M 158.019531 51.28125 C 162.9375 51.28125 167.855469 51.28125 172.925781 51.28125 C 172.925781 79.769531 172.925781 108.257812 172.925781 137.605469 C 168.007812 137.605469 163.085938 137.605469 158.019531 137.605469 C 158.019531 109.121094 158.019531 80.632812 158.019531 51.28125 Z M 158.019531 51.28125 "/>
<path style=" stroke:none;fill-rule:nonzero;fill:rgb(5.098039%,57.254902%,81.960784%);fill-opacity:1;" d="M 70.617188 67.566406 C 74.699219 71.082031 77.449219 75.882812 78.289062 81.242188 C 78.410156 83.074219 78.371094 84.914062 78.371094 86.753906 C 64.457031 86.753906 50.539062 86.753906 36.203125 86.753906 C 36.828125 79.238281 39.203125 73.167969 44.722656 67.949219 C 51.96875 62.058594 63.199219 61.859375 70.617188 67.566406 Z M 70.617188 67.566406 "/>
<path style=" stroke:none;fill-rule:nonzero;fill:rgb(61.176471%,79.607843%,23.137255%);fill-opacity:1;" d="M 175.480469 2.5625 C 178.460938 4.5 179.910156 7.175781 181.152344 10.445312 C 181.902344 14.351562 181.585938 18.0625 179.566406 21.546875 C 177.464844 24.515625 174.671875 26.507812 171.167969 27.511719 C 167.238281 28.148438 164.066406 27.648438 160.519531 25.800781 C 157.152344 23.007812 154.90625 20.371094 154.449219 15.96875 C 154.1875 11.558594 154.996094 8.070312 157.960938 4.636719 C 158.789062 3.847656 159.621094 3.199219 160.574219 2.5625 C 160.984375 2.289062 160.984375 2.289062 161.40625 2.003906 C 165.535156 -0.277344 171.511719 0.195312 175.480469 2.5625 Z M 175.480469 2.5625 "/>
</g>
</svg>
